<?xml version="1.0" encoding="utf-8"?>
<!-- Generator: Adobe Illustrator 19.0.0, SVG Export Plug-In . SVG Version: 6.00 Build 0)  -->
<svg version="1.1" id="Layer_1" xmlns="http://www.w3.org/2000/svg" xmlns:xlink="http://www.w3.org/1999/xlink" x="0px" y="0px"
	 viewBox="0 0 20 20" style="enable-background:new 0 0 20 20;" xml:space="preserve">
<style type="text/css">
	.st0{fill:#2F6CAE;}
</style>
<path id="XMLID_10_" class="st0" d="M8.1,0.1H0.9c-0.4,0-0.7,0.3-0.7,0.7v7.1c0,0.4,0.3,0.7,0.7,0.7h7.1c0.4,0,0.7-0.3,0.7-0.7V0.8
	C8.7,0.4,8.4,0.1,8.1,0.1z M7.4,7.2H1.6V1.5h5.7V7.2z M19.1,0.1h-7.1c-0.4,0-0.7,0.3-0.7,0.7v7.1c0,0.4,0.3,0.7,0.7,0.7h7.1
	c0.4,0,0.7-0.3,0.7-0.7V0.8C19.7,0.4,19.4,0.1,19.1,0.1z M18.4,7.2h-5.7V1.5h5.7V7.2z M8.1,11.1H0.9c-0.4,0-0.7,0.3-0.7,0.7v7.1
	c0,0.4,0.3,0.7,0.7,0.7h7.1c0.4,0,0.7-0.3,0.7-0.7v-7.1C8.7,11.4,8.4,11.1,8.1,11.1z M7.4,18.2H1.6v-5.7h5.7V18.2z M19.1,11.1h-7.1
	c-0.4,0-0.7,0.3-0.7,0.7v7.1c0,0.4,0.3,0.7,0.7,0.7h7.1c0.4,0,0.7-0.3,0.7-0.7v-7.1C19.7,11.4,19.4,11.1,19.1,11.1z M18.4,18.2h-5.7
	v-5.7h5.7V18.2z"/>
</svg>
